<?xml version="1.0" encoding="UTF-8" standalone="no"?>
<!-- Created with Inkscape (http://www.inkscape.org/) -->

<svg
   xmlns:dc="http://purl.org/dc/elements/1.1/"
   xmlns:cc="http://creativecommons.org/ns#"
   xmlns:rdf="http://www.w3.org/1999/02/22-rdf-syntax-ns#"
   xmlns:svg="http://www.w3.org/2000/svg"
   xmlns="http://www.w3.org/2000/svg"
   xmlns:sodipodi="http://sodipodi.sourceforge.net/DTD/sodipodi-0.dtd"
   xmlns:inkscape="http://www.inkscape.org/namespaces/inkscape"
   version="1.1"
   id="svg890"
   width="200"
   height="200"
   viewBox="0 0 200 200"
   sodipodi:docname="cindylogo.svg"
   inkscape:version="0.92.3 (2405546, 2018-03-11)">
  <metadata
     id="metadata896">
    <rdf:RDF>
      <cc:Work
         rdf:about="">
        <dc:format>image/svg+xml</dc:format>
        <dc:type
           rdf:resource="http://purl.org/dc/dcmitype/StillImage" />
        <dc:title />
      </cc:Work>
    </rdf:RDF>
  </metadata>
  <defs
     id="defs894" />
  <sodipodi:namedview
     pagecolor="#ffffff"
     bordercolor="#666666"
     borderopacity="1"
     objecttolerance="10"
     gridtolerance="10"
     guidetolerance="10"
     inkscape:pageopacity="0"
     inkscape:pageshadow="2"
     inkscape:window-width="1366"
     inkscape:window-height="713"
     id="namedview892"
     showgrid="false"
     inkscape:zoom="2"
     inkscape:cx="81.407981"
     inkscape:cy="122.81154"
     inkscape:window-x="0"
     inkscape:window-y="27"
     inkscape:window-maximized="1"
     inkscape:current-layer="svg890" />
  <path
     style="fill:#a89a75;fill-opacity:1;stroke-width:0.17561443"
     d="m 104.47698,188.23443 c -1.61297,-0.8537 -3.24351,-2.57853 -4.11636,-4.35436 -1.072608,-2.18231 -1.449878,-3.83031 -1.556748,-6.80035 -0.13905,-3.86424 0.38291,-6.3167 2.091158,-9.82547 1.60526,-3.29722 6.11231,-9.6247 9.00692,-12.64486 2.84117,-2.96441 4.66421,-4.13995 7.73491,-4.9877 1.2484,-0.34465 1.82557,-0.38777 5.18063,-0.38702 2.3852,5.3e-4 4.77817,0.11175 6.49773,0.30197 10.30576,1.14008 14.92704,1.9968 19.00029,3.52242 0.92566,0.34669 1.79936,0.63035 1.94156,0.63035 0.14221,0 0.51237,-0.4544 0.82257,-1.00978 0.59784,-1.07031 1.40875,-2.31186 2.26534,-3.46838 0.28617,-0.38635 1.60015,-2.48056 2.91998,-4.65378 1.31981,-2.17323 2.75494,-4.465 3.18916,-5.09282 0.43422,-0.62782 1.26125,-2.07866 1.83782,-3.22407 0.57658,-1.14541 1.39227,-2.56789 1.81266,-3.16106 0.42041,-0.59317 1.17321,-1.80119 1.6729,-2.6845 0.84736,-1.49786 0.90496,-1.67526 0.85531,-2.63422 l -0.0532,-1.0282 h -4.65378 -4.65378 l -0.0878,5.40673 c -0.0739,4.54867 -0.12962,5.43313 -0.35123,5.57307 -0.15209,0.096 -2.75694,0.16748 -6.16319,0.16903 -5.47466,0.003 -5.92052,-0.0202 -6.18774,-0.31552 -0.25105,-0.27741 -0.29396,-0.99227 -0.33454,-5.57576 l -0.0465,-5.25755 h -4.65378 -4.65378 l -0.0878,5.40673 c -0.0739,4.54867 -0.12961,5.43313 -0.35123,5.57307 -0.15209,0.096 -2.75693,0.16748 -6.1632,0.16903 -5.47464,0.003 -5.92051,-0.0202 -6.18774,-0.31552 -0.25105,-0.27741 -0.29394,-0.99227 -0.33454,-5.57576 l -0.0466,-5.25755 h -4.65378 -4.65378 l -0.0878,5.38578 c -0.0483,2.96217 -0.14632,5.44416 -0.21783,5.51553 -0.29307,0.29247 -1.9794,0.39638 -5.05061,0.31121 l -3.24886,-0.0901 -0.79027,-0.83207 c -0.69975,-0.73676 -1.78124,-2.01987 -5.707468,-6.77149 -2.05522,-2.48727 -3.21558,-3.87605 -3.62471,-4.33825 -0.22793,-0.25749 -0.80955,-0.95741 -1.29249,-1.55539 -0.48294,-0.59797 -1.25345,-1.51426 -1.71224,-2.0362 -0.45879,-0.52194 -0.83417,-1.02886 -0.83417,-1.1265 0,-0.26022 0.52583,-0.45055 3.16106,-1.14417 2.97995,-0.78436 3.77395,-0.8993 4.13608,-0.59876 0.1526,0.12664 0.67608,0.90774 1.16329,1.73577 1.26369,2.14765 2.62878,3.98084 7.306678,9.8122 3.31884,4.13717 4.20031,5.13528 4.4977,5.09281 0.36566,-0.0522 0.37042,-0.11381 0.41641,-5.39421 0.0312,-3.58339 0.11054,-5.41853 0.24102,-5.57575 0.28581,-0.34438 12.31018,-0.34438 12.596,0 0.13048,0.15722 0.2098,1.99236 0.24102,5.57575 l 0.0465,5.34141 h 4.65378 4.65379 l 0.0466,-5.34141 c 0.0312,-3.58339 0.11053,-5.41853 0.24102,-5.57575 0.28581,-0.34438 12.31019,-0.34438 12.59599,0 0.1305,0.15722 0.20982,1.99236 0.24103,5.57575 l 0.0465,5.34141 h 4.65379 4.65378 l 0.0465,-5.34141 c 0.0312,-3.58339 0.11053,-5.41853 0.24103,-5.57575 0.15535,-0.18719 1.42523,-0.23436 6.30953,-0.23436 5.97739,0 6.12076,0.008 6.36871,0.36214 0.2515,0.35907 0.25656,0.35795 0.59646,-0.13171 0.54325,-0.7826 2.0802,-3.74749 2.42685,-4.68156 0.17371,-0.46807 0.46206,-0.90513 0.64077,-0.97124 0.33338,-0.12333 4.17577,0.29883 6.20517,0.68175 0.927,0.17491 1.13633,0.27626 1.13633,0.55014 0,0.18464 -0.65894,1.34134 -1.46431,2.57043 -1.38034,2.10658 -6.29179,9.82987 -13.98484,21.99132 -4.00895,6.33749 -4.40812,6.96811 -5.47054,8.64264 -0.44651,0.70377 -2.88546,4.55918 -5.41989,8.56758 -2.53443,4.0084 -5.0021,7.82185 -5.4837,8.47433 -1.65594,2.2435 -3.55311,3.65316 -6.1003,4.53274 -1.04035,0.35924 -1.33286,0.3817 -3.60009,0.2764 -2.09802,-0.0974 -2.76536,-0.20446 -4.4542,-0.7144 -1.378,-0.41605 -2.00629,-0.53674 -2.05121,-0.394 -0.0356,0.11316 -0.18829,1.15406 -0.33927,2.31312 -0.35214,2.70328 -0.81514,4.37304 -1.72869,6.23431 -1.33378,2.71748 -4.09039,5.03499 -6.97765,5.86624 -2.45524,0.70685 -8.73336,1.14898 -11.32713,0.79768 -1.83544,-0.43516 -3.7888,-0.77872 -5.43296,-1.62213 z m 12.92425,-1.8074 c 1.19207,-0.1534 2.64155,-0.43614 3.22108,-0.62832 2.79729,-0.92766 4.62283,-3.01782 5.5271,-6.32826 0.2489,-0.91119 1.40967,-8.79851 1.40967,-9.57856 0,-0.0288 0.4385,-0.50515 0.97444,-1.05848 0.91417,-0.94384 1.02549,-1.00602 1.80004,-1.00548 0.64665,0 1.05402,0.14232 1.8793,0.65449 2.9276,1.81681 5.88448,1.83564 8.06197,0.0513 0.63539,-0.52066 2.73832,-3.32164 2.73832,-3.6473 0,-0.19295 -1.80792,-0.54514 -8.34168,-1.62501 -8.62169,-1.42498 -9.34511,-1.48812 -11.32189,-0.98823 -2.48245,0.62777 -3.50021,1.41652 -6.64214,5.1476 -2.24436,2.66522 -3.06378,4.41748 -3.27934,7.01258 -0.19881,2.39342 -0.27651,2.74571 -0.70831,3.21162 -0.60521,0.65304 -1.68803,0.64033 -2.31313,-0.0271 -0.45173,-0.48236 -0.45215,-0.48586 -0.36122,-2.94155 0.0693,-1.87249 0.182,-2.73071 0.47254,-3.60009 0.73439,-2.19748 2.85318,-5.28679 5.5082,-8.03127 2.57128,-2.65789 4.66259,-3.82096 7.68689,-4.27503 1.8799,-0.28224 6.08093,-0.23344 8.32418,0.0967 2.53162,0.37259 11.6233,2.37937 12.76565,2.81773 0.23227,0.0891 0.66829,-0.49563 2.89301,-3.87987 0.32213,-0.49001 0.58567,-0.97825 0.58567,-1.08498 0,-0.39408 -3.71582,-1.55818 -7.17128,-2.24662 -1.19145,-0.23737 -3.60176,-0.62477 -5.35624,-0.86088 -9.72584,-1.30887 -15.32866,-1.48371 -18.13082,-0.56576 -3.26081,1.06818 -5.83406,3.66934 -11.16944,11.29057 -4.07219,5.81684 -5.31206,10.68309 -4.01454,15.75635 1.00418,3.9263 3.03692,5.70471 7.35305,6.43306 1.42886,0.24111 5.36265,0.18983 7.60892,-0.0992 z m 47.65153,-78.83483 c -1.29201,-0.91679 -3.57532,-3.2811 -4.36969,-4.52473 -1.47837,-2.31448 -2.60492,-5.123596 -3.30041,-8.229874 -0.3732,-1.666785 -0.40809,-2.236719 -0.40739,-6.652362 0,-4.697441 0.0144,-4.886888 0.50084,-6.933315 1.91593,-8.06127 6.48292,-13.229745 13.48244,-15.258123 3.41737,-0.990318 8.16625,-1.062827 11.65566,-0.177974 1.63514,0.414646 4.04216,1.427443 5.51244,2.319467 1.25782,0.763115 4.17719,3.433131 4.82148,4.409663 0.15547,0.235642 0.30773,0.393697 0.33837,0.351228 0.13017,-0.180432 -0.21841,-18.775679 -0.40262,-21.478368 -0.12083,-1.772609 -0.13792,-3.025614 -0.0426,-3.120977 0.088,-0.08799 1.7262,-0.137963 3.65901,-0.111606 l 3.4997,0.04772 -0.0392,0.965879 c -0.3051,7.514547 -0.30583,52.733702 -0.002,60.060132 l 0.0402,0.96588 h -3.33668 -3.33667 v -3.46845 c 0,-1.90765 -0.0395,-3.46221 -0.0878,-3.45457 -0.0483,0.008 -0.56802,0.61921 -1.15494,1.35905 -2.49605,3.14634 -6.37,5.38026 -10.69903,6.1696 -5.7426,0.82423 -11.88798,-0.16376 -16.33111,-3.23827 z m 23.26168,-6.39318 c 2.14334,-2.145514 3.52277,-4.848574 4.2253,-8.27963 0.48591,-2.373051 0.53242,-7.199382 0.0921,-9.549435 -1.44404,-7.706309 -7.10434,-12.41441 -14.93481,-12.4224 -2.43612,-0.0026 -4.3375,0.379924 -6.1465,1.236215 -5.61805,2.659286 -8.36828,9.023826 -7.80048,18.051806 0.30191,4.80058 1.32529,8.013307 3.35134,10.521124 0.89907,1.11288 2.71401,2.59115 3.92229,3.19473 2.68578,1.34164 7.18165,1.72339 10.72948,0.91103 2.61354,-0.81034 4.98944,-2.11849 6.56128,-3.66344 z m -79.71957,7.53 c 0.50528,-3.12619 0.50533,-37.645554 7e-5,-40.889641 -0.11065,-0.710434 -0.15823,-1.403625 -0.10573,-1.54043 0.0787,-0.205011 0.69054,-0.240354 3.48008,-0.201029 l 3.38463,0.0477 0.0878,4.024457 0.0878,4.024449 0.67324,-1.014519 c 0.37028,-0.557987 1.3186,-1.687247 2.10737,-2.50947 2.21466,-2.30857 4.01861,-3.469421 6.91288,-4.448476 2.21462,-0.749144 3.66757,-0.917872 7.09879,-0.824355 2.66014,0.0725 3.25515,0.144091 4.63268,0.557392 5.9011,1.770514 9.24498,5.773617 9.91384,11.868325 0.0901,0.821308 0.21172,7.617832 0.27018,15.103397 0.0585,7.48557 0.18681,14.34942 0.28518,15.25301 0.0984,0.9036 0.13658,1.75313 0.0849,1.88786 -0.0762,0.19854 -0.77822,0.24496 -3.70512,0.24496 -3.10243,0 -3.62585,-0.0384 -3.71576,-0.27269 -0.0576,-0.14998 -0.009,-1.39465 0.1089,-2.76593 0.14256,-1.66441 0.21279,-6.63819 0.21127,-14.96186 -0.002,-10.847864 -0.0396,-12.651243 -0.28956,-13.873539 -0.93624,-4.578474 -3.75597,-7.073123 -8.35369,-7.390597 -3.01969,-0.208513 -5.77746,0.49021 -8.11733,2.05664 -1.51563,1.014641 -4.05737,3.644295 -5.2641,5.446175 -1.20133,1.793807 -1.92732,3.339217 -2.4308,5.174455 -0.35518,1.294633 -0.36999,1.729236 -0.36826,10.808136 0.001,5.80031 0.0855,10.57338 0.21818,12.33949 0.119,1.58413 0.16807,3.00612 0.10902,3.15997 -0.0934,0.24337 -0.57694,0.27975 -3.71847,0.27975 -2.75373,0 -3.6314,-0.0528 -3.69654,-0.22262 -0.032,-0.50858 0.0521,-0.94489 0.0986,-1.36101 z M 15.500796,103.62825 C 11.772877,100.9495 8.090076,96.693271 5.861242,92.487787 5.0410164,91.134393 4.3714058,89.565239 3.875923,88.360845 2.164247,84.192163 0.98983304,79.577739 0.30027604,74.311695 -0.10488396,71.21755 -0.09887096,63.524348 0.31132004,60.174733 1.590648,49.72787 4.999195,41.484627 10.667216,35.129982 c 1.953709,-2.19038 3.539877,-3.649903 5.133048,-4.723207 0.472062,-0.318024 1.016348,-0.716825 1.209523,-0.886226 0.193176,-0.169401 1.141494,-0.724021 2.107374,-1.23249 1.116896,-0.621946 1.976904,-0.589376 1.510891,-1.678495 -0.192177,-0.373806 -1.189473,-2.971415 -2.216216,-5.772465 -2.019165,-5.508477 -2.175875,-6.243272 -1.557366,-7.302309 1.029241,-1.762305 3.447844,-1.856718 4.553647,-0.177762 0.439124,0.666729 4.294585,11.077211 4.294585,11.596203 0,0.477659 0.140072,0.515235 1.037828,0.278411 0.791982,-0.208919 2.680816,-0.541254 5.591621,-0.983827 l 1.273204,-0.193583 v -5.830004 c 0,-5.697106 0.009,-5.847836 0.395131,-6.612161 1.033592,-2.0459725 3.619817,-2.1378885 4.776001,-0.169746 0.341284,0.58096 0.363572,0.930869 0.413595,6.492317 0.03893,4.3281 0.108397,5.91356 0.263423,6.012106 0.115797,0.07361 0.724218,0.135481 1.352039,0.137485 0.627827,0.002 2.208358,0.163504 3.512288,0.358894 1.30394,0.195391 2.51715,0.372772 2.69601,0.394181 0.27702,0.03316 0.61784,-0.81483 2.29985,-5.722166 1.08606,-3.1686 2.12766,-5.966022 2.31466,-6.216492 1.51735,-2.032323 4.80688,-0.996419 4.80688,1.513731 0,0.562354 -0.56586,2.50698 -1.84395,6.336914 -1.01418,3.039071 -1.84396,5.629888 -1.84396,5.757372 0,0.127486 0.25684,0.321232 0.57075,0.43055 1.03714,0.361181 3.51678,1.748122 5.16225,2.8874 1.78392,1.235145 5.33367,4.625991 6.61589,6.319739 1.72057,2.272778 3.12182,4.792918 4.60259,8.277792 0.7631,1.795905 0.81726,2.010441 0.56991,2.257788 -0.25078,0.250783 -5.49107,1.936309 -7.33035,2.357787 -1.34801,0.308904 -1.47372,0.20476 -2.29611,-1.902364 -1.38965,-3.560517 -2.35146,-5.146642 -4.5966,-7.580318 -3.1881,-3.455827 -6.05261,-5.225909 -10.49851,-6.487409 -2.15633,-0.611844 -2.51227,-0.670162 -5.511704,-0.90304 -8.409533,-0.652924 -15.91416,1.913958 -21.24566,7.266857 -2.068901,2.077206 -2.889699,3.112161 -4.194742,5.289215 -1.806435,3.013465 -3.152831,6.406064 -4.077142,10.273445 -0.768124,3.213881 -0.982607,5.150728 -1.089045,9.834409 -0.184074,8.099948 0.377745,12.433305 2.356521,18.176093 2.808309,8.150247 8.652186,14.468822 15.829287,17.115103 6.081532,2.24233 14.139421,2.25375 20.160995,0.0286 5.23847,-1.935789 9.71571,-5.847297 12.08089,-10.554374 0.62379,-1.241427 1.44564,-3.705529 1.93415,-5.799035 0.44476,-1.905999 0.42343,-1.894219 2.58424,-1.427007 0.9938,0.214884 2.9923,0.688479 4.44112,1.052435 3.08721,0.775542 2.98278,0.639774 2.27766,2.961245 -1.57589,5.188355 -3.57183,8.979955 -6.49621,12.340556 -6.0889,6.99719 -13.99739,10.62639 -24.494408,11.24047 -1.593705,0.0932 -3.05569,0.1581 -3.248869,0.14416 -7.260847,-0.36794 -15.958119,-2.70462 -21.353429,-6.47851 z m 63.540096,2.63966 c -1.26201,-0.15485 -1.75567,-0.28671 -1.86312,-0.49767 -0.22081,-0.43355 0.90548,-8.616538 1.21205,-8.80601 0.13426,-0.08297 0.44538,-0.115279 0.69141,-0.0718 0.24602,0.04347 2.25267,0.31488 4.45923,0.603093 2.20656,0.28822 4.08344,0.568226 4.17084,0.622244 0.0874,0.05404 0.15892,0.344979 0.15892,0.646587 0,0.90312 -0.88249,7.565616 -1.05861,7.992106 -2.569365,0.60496 -4.222427,-0.0504 -7.77072,-0.48855 z m 5.58046,-21.278961 c -2.40292,-0.325893 -3.9588,-0.615528 -4.11556,-0.766117 -0.2185,-0.20991 -0.17757,-0.564153 0.30758,-2.661936 0.77767,-3.362638 0.91775,-4.233406 2.31046,-14.361591 2.61179,-18.993784 4.04118,-31.203858 4.04321,-34.537772 6.4e-4,-1.49312 0.0963,-1.726605 0.70542,-1.726605 0.95952,0 8.31221,1.044017 8.471,1.202808 0.0982,0.09815 -0.0503,1.012598 -0.37862,2.33304 -0.62334,2.506596 -0.63341,2.571249 -2.37574,15.254895 -2.08398,15.170705 -3.97347,30.579449 -4.06832,33.176949 -0.0473,1.296145 -0.12662,2.422267 -0.17621,2.502505 -0.1228,0.198699 -0.31336,0.181911 -4.72322,-0.416176 z M 35.59405,79.513559 c -1.106153,-0.361882 -1.860752,-0.889796 -2.943363,-2.059143 -3.33138,-3.598293 -4.512604,-11.28111 -2.589336,-16.841437 0.818061,-2.365086 2.265384,-4.437431 3.756487,-5.378725 1.069281,-0.675008 2.618027,-1.004941 3.664163,-0.780587 2.789444,0.598228 5.244641,3.372653 6.383791,7.213789 2.07914,7.010755 -0.0268,15.348694 -4.42031,17.501636 -1.113215,0.545502 -2.781011,0.694664 -3.851432,0.344467 z"
     id="path900"
     inkscape:connector-curvature="0"
     sodipodi:nodetypes="cccccccccscccscccccccccccccccccccccccccccccccsscccccccccccccccccccccscccccscscssccccccccccccsccccscccscccccccccscccssccccccccccccccccccccccsccccccccccccccccccccccccssccccsccccsscccccsccccscsscccscsscscscssccscccscssccccccscsssssssccccccccccccccccscccccscsccsccccccscccccc" />
</svg>
