<?xml version="1.0" standalone="no"?><!DOCTYPE svg PUBLIC "-//W3C//DTD SVG 1.1//EN" "http://www.w3.org/Graphics/SVG/1.1/DTD/svg11.dtd"><svg t="1515401301665" class="icon" style="" viewBox="0 0 1124 1024" version="1.1" xmlns="http://www.w3.org/2000/svg" p-id="10242" xmlns:xlink="http://www.w3.org/1999/xlink" width="219.53125" height="200"><defs><style type="text/css"></style></defs><path d="M409.469533 893.16591c-29.836334 0-60.681319-3.407486-91.74119-10.236711-3.543435-0.784994-7.258998-1.222441-10.850673-1.222441-6.208685 0-12.469996 1.133636-18.328942 3.414064l-133.03558 51.183555 21.170706-74.109533c5.646253-19.599623-1.045927-40.68591-16.889421-53.551692C90.937559 752.911897 53.140557 679.063298 53.140557 600.487195c0-161.512428 159.853636-292.848651 356.330073-292.848651 196.55976 0 356.371734 131.335126 356.371734 292.848651 0 161.350167-159.811974 292.677619-356.371734 292.677619z m0-636.360086c-224.954381 0-407.25379 153.818176-407.25379 343.68466 0 97.476248 48.301225 185.23546 125.558407 247.708231l-49.259443 172.192069 228.362963-87.759212c32.814047 7.170193 67.067615 11.459152 102.591863 11.459152 224.953285 0 407.343692-153.818176 407.343692-343.601336 0-189.86758-182.390407-343.683563-407.343692-343.683564z m712.833371 89.071555C1122.302904 156.009799 939.921268 2.192719 715.006355 2.192719c-168.080719 0-312.229002 85.834004-374.483597 208.415795 20.078732-2.540266 40.510493-4.201251 61.332557-4.548797 60.551949-90.997859 178.147495-152.948762 313.149944-152.948762 196.519195 0 356.371734 131.335126 356.371735 292.766424 0 78.57391-37.881422 152.505833-106.654973 208.24257-15.877482 12.771495-22.617901 33.948779-16.97713 53.457404l21.177285 74.197242-105.215452-40.508299c-2.09624 17.234775-5.90609 34.035392-10.454887 50.575074l192.709345 74.019632-49.298912-172.192068c77.344891-62.562672 125.640634-150.321884 125.640634-247.791555z" fill="#839496" p-id="10243"></path></svg>