<?xml version="1.0" encoding="UTF-8" standalone="no"?>
<!-- Created with Inkscape (http://www.inkscape.org/) -->
<svg id="svg5238" xmlns:rdf="http://www.w3.org/1999/02/22-rdf-syntax-ns#" xmlns="http://www.w3.org/2000/svg" height="50" viewBox="0 0 50 50" width="50" version="1.1" xmlns:cc="http://creativecommons.org/ns#" xmlns:dc="http://purl.org/dc/elements/1.1/">
 <metadata id="metadata5244">
  <rdf:RDF>
   <cc:Work rdf:about="">
    <dc:format>image/svg+xml</dc:format>
    <dc:type rdf:resource="http://purl.org/dc/dcmitype/StillImage"/>
    <dc:title/>
   </cc:Work>
  </rdf:RDF>
 </metadata>
 <rect id="rect5795" opacity="0.99" stroke-linejoin="round" height="45" width="45" stroke="#1fa4bb" stroke-linecap="round" y="2.5424" x="2.5424" stroke-width="4.5" fill="none"/>
 <g id="flowRoot5797" stroke-opacity=".99608" fill-opacity=".99216" transform="translate(2.9661 3.6017)" stroke="#19a8c2" fill="#1fa4bb">
  <path id="path5794" d="m19.574 8.0065c-0.2275 0.0875-0.56 0.14-1.2075 0.14h-3.92v-1.6275c0-0.3675 0.0175-0.77 0.105-1.3125h-1.68c0.07 0.5425 0.0875 0.945 0.0875 1.3125v1.6275h-3.8675c-0.6125 0-1.12-0.0175-1.6275-0.07 0.0525 0.385 0.0525 0.98 0.0525 1.3475v3.08c0 0.3325-0.0175 0.805-0.0525 1.1025h1.5225c-0.0525-0.2625-0.07-0.7175-0.07-1.0325v-3.1325h9.7825c-0.1575 1.505-0.7175 3.6225-1.6625 5.11-1.0675 1.6625-2.9925 2.9575-4.7425 3.5175-0.56 0.21-1.225 0.4025-1.82 0.49l1.1375 1.3125c3.2025-0.875 5.6175-2.66 6.93-4.97 0.98-1.6625 1.4875-3.85 1.715-5.25 0.07-0.3325 0.175-0.7875 0.2625-1.05l-0.945-0.595z"/>
  <path id="path5796" d="m27.606 5.9765-0.5075 1.295c2.415 0.315 7 1.3125 9.135 2.0825l0.56-1.3475c-2.205-0.77-6.9125-1.7325-9.1875-2.03zm-0.7875 4.62-0.525 1.3125c2.485 0.3675 6.755 1.33 8.785 2.135l0.56-1.3475c-2.1875-0.805-6.4225-1.6975-8.82-2.1zm-0.9625 5.0925-0.5425 1.33c2.835 0.455 8.0325 1.6275 10.36 2.6425l0.595-1.3475c-2.3975-0.9625-7.4725-2.17-10.412-2.625z"/>
  <path id="path5798" d="m13.431 26.382c0.035-0.5775 0.07-1.1725 0.0875-1.8025 0.0175-0.42 0.0525-1.0325 0.105-1.4175h-1.645c0.07 0.4025 0.1225 1.05 0.1225 1.4525 0 0.6125-0.035 1.2075-0.07 1.7675h-3.08c-0.665 0-1.3825-0.035-1.995-0.0875v1.47c0.6125-0.07 1.3125-0.07 2.0125-0.07h2.94c-0.4725 3.605-1.7325 5.81-3.465 7.3675-0.525 0.5075-1.2425 0.9975-1.785 1.295l1.26 1.0325c2.9225-2.0125 4.7425-4.655 5.3725-9.695h4.9c0 1.8725-0.2275 6.1775-0.8925 7.525-0.1925 0.42-0.5075 0.56-1.015 0.56-0.735 0-1.6625-0.07-2.6075-0.1925l0.175 1.4525c0.91 0.07 1.925 0.1225 2.8175 0.1225 0.9625 0 1.5225-0.315 1.8725-1.0675 0.7875-1.68 0.9975-6.7725 1.0675-8.4525 0-0.2275 0.035-0.56 0.0875-0.8575l-0.98-0.49c-0.2975 0.0525-0.6475 0.0875-1.12 0.0875h-4.165zm3.9025-2.975c0.4725 0.665 1.0675 1.715 1.4175 2.415l0.945-0.42c-0.3675-0.7-0.9975-1.7675-1.435-2.3975l-0.9275 0.4025zm1.925-0.7c0.49 0.6475 1.0675 1.645 1.4525 2.3975l0.9275-0.42c-0.315-0.6475-0.9975-1.7325-1.4525-2.38l-0.9275 0.4025z"/>
  <path id="path5800" d="m35.131 23.424c-0.07 0.385-0.2275 0.945-0.35 1.295-0.525 1.4875-1.2425 3.1325-2.3625 4.76-1.3825-1.0675-3.4125-2.5025-4.9-3.4475l-0.9275 1.1025c1.68 1.0325 3.6225 2.4675 4.9175 3.535-1.715 2.1175-3.885 4.0425-6.9475 5.495l1.2425 1.1025c3.045-1.575 5.215-3.6575 6.8425-5.6525 1.505 1.295 2.835 2.5375 4.13 4.025l1.1025-1.225c-1.2425-1.33-2.7475-2.695-4.305-3.99 1.1725-1.6975 2.065-3.6225 2.625-5.1625 0.14-0.3675 0.4025-0.945 0.5775-1.2775l-1.645-0.56z"/>
 </g>
</svg>
