<?xml version="1.0" standalone="no"?>
<!DOCTYPE svg PUBLIC "-//W3C//DTD SVG 1.1//EN" "http://www.w3.org/Graphics/SVG/1.1/DTD/svg11.dtd">
<svg t="1517133866958" class="icon" style="" viewBox="0 0 1024 1024" version="1.1" xmlns="http://www.w3.org/2000/svg" p-id="1637" xmlns:xlink="http://www.w3.org/1999/xlink" width="200" height="200">
<defs>
<style type="text/css">
</style>
</defs>
<path d="M443.008 1024c-13.312 0-26.624-7.168-33.792-19.456-10.24-15.36-7.168-35.84 5.12-49.152 16.384-15.36 59.392-69.632 52.224-108.544-1.024-6.144-3.072-23.552-32.768-40.96H298.624c-155.648 0-282.624-125.952-282.624-281.6V282.624C16 126.976 142.976 0 298.624 0h410.624c155.648 0 282.624 126.976 282.624 282.624v241.664c0 146.432-112.64 267.264-256 280.576-25.6 50.176-100.352 157.696-279.552 217.088-4.096 1.024-8.192 2.048-13.312 2.048zM298.624 80.896a201.472 201.472 0 0 0-201.728 201.728v241.664c0 110.592 90.112 201.728 201.728 201.728h144.384c6.144 0 13.312 1.024 18.432 4.096 61.44 30.72 79.872 72.704 84.992 103.424 3.072 20.48 2.048 40.96-3.072 59.392 99.328-62.464 126.976-136.192 128-140.288a40.64 40.64 0 0 1 37.888-26.624c111.616 0 201.728-91.136 201.728-201.728V282.624a201.472 201.472 0 0 0-201.728-201.728H298.624z" 
p-id="1638" 
fill="#eee8d5">
</path>
</svg>
