<?xml version="1.0" encoding="UTF-8" standalone="no"?>
<svg
   xmlns:dc="http://purl.org/dc/elements/1.1/"
   xmlns:cc="http://creativecommons.org/ns#"
   xmlns:rdf="http://www.w3.org/1999/02/22-rdf-syntax-ns#"
   xmlns:svg="http://www.w3.org/2000/svg"
   xmlns="http://www.w3.org/2000/svg"
   xmlns:sodipodi="http://sodipodi.sourceforge.net/DTD/sodipodi-0.dtd"
   xmlns:inkscape="http://www.inkscape.org/namespaces/inkscape"
   t="1517975822447"
   class="icon"
   viewBox="0 0 704 768"
   version="1.1"
   p-id="3042"
   width="137.5"
   height="150"
   id="svg2"
   inkscape:version="0.91 r13725"
   sodipodi:docname="delete.svg">
  <metadata
     id="metadata18">
    <rdf:RDF>
      <cc:Work
         rdf:about="">
        <dc:format>image/svg+xml</dc:format>
        <dc:type
           rdf:resource="http://purl.org/dc/dcmitype/StillImage" />
        <dc:title></dc:title>
      </cc:Work>
    </rdf:RDF>
  </metadata>
  <sodipodi:namedview
     pagecolor="#ffffff"
     bordercolor="#666666"
     borderopacity="1"
     objecttolerance="10"
     gridtolerance="10"
     guidetolerance="10"
     inkscape:pageopacity="0"
     inkscape:pageshadow="2"
     inkscape:window-width="770"
     inkscape:window-height="480"
     id="namedview16"
     showgrid="false"
     fit-margin-top="0"
     fit-margin-left="0"
     fit-margin-right="0"
     fit-margin-bottom="0"
     inkscape:zoom="1.18"
     inkscape:cx="-32.097458"
     inkscape:cy="75"
     inkscape:window-x="0"
     inkscape:window-y="24"
     inkscape:window-maximized="0"
     inkscape:current-layer="svg2" />
  <defs
     id="defs4">
    <style
       type="text/css"
       id="style6" />
  </defs>
  <path
     d="m 608,256 c -19.2,0 -32,12.8 -32,32 l 0,377.6 c 0,25.6 -19.2,38.4 -38.4,38.4 l -371.2,0 C 140.8,704 128,684.8 128,665.6 L 128,288 c 0,-19.2 -12.8,-32 -32,-32 -19.2,0 -32,12.8 -32,32 l 0,377.6 C 64,723.2 108.8,768 166.4,768 l 364.8,0 c 57.6,0 102.4,-44.8 102.4,-102.4 l 0,-377.6 C 640,268.8 627.2,256 608,256 Z"
     p-id="3043"
     id="path8"
     inkscape:connector-curvature="0"
     style="fill:#d15223" />
  <path
     d="m 300.8,608 0,-320 c 0,-19.2 -12.8,-32 -25.6,-32 -12.8,0 -38.4,12.8 -38.4,32 l 0,320 c 0,19.2 12.8,32 32,32 19.2,0 32,-12.8 32,-32 z"
     p-id="3044"
     id="path10"
     inkscape:connector-curvature="0"
     style="fill:#d15223" />
  <path
     d="m 467.2,608 0,-320 c 0,-19.2 -19.2,-32 -38.4,-32 -19.2,0 -25.6,12.8 -25.6,32 l 0,320 c 0,19.2 12.8,32 25.6,32 12.8,0 38.4,-12.8 38.4,-32 z"
     p-id="3045"
     id="path12"
     inkscape:connector-curvature="0"
     style="fill:#d15223" />
  <path
     d="m 672,128 -160,0 0,-44.8 C 512,38.4 473.6,0 428.8,0 L 275.2,0 C 230.4,0 192,38.4 192,83.2 l 0,44.8 -160,0 c -19.2,0 -32,12.8 -32,32 0,19.2 12.8,32 32,32 l 640,0 c 19.2,0 32,-12.8 32,-32 0,-19.2 -12.8,-32 -32,-32 z M 256,83.2 C 256,70.4 262.4,64 275.2,64 l 153.6,0 c 12.8,0 19.2,6.4 19.2,19.2 l 0,44.8 -192,0 0,-44.8 z"
     p-id="3046"
     id="path14"
     inkscape:connector-curvature="0"
     style="fill:#d15223" />
</svg>
