<?xml version="1.0" encoding="UTF-8" standalone="no"?>
<!-- Created with Inkscape (http://www.inkscape.org/) -->

<svg
   xmlns:dc="http://purl.org/dc/elements/1.1/"
   xmlns:cc="http://creativecommons.org/ns#"
   xmlns:rdf="http://www.w3.org/1999/02/22-rdf-syntax-ns#"
   xmlns:svg="http://www.w3.org/2000/svg"
   xmlns="http://www.w3.org/2000/svg"
   xmlns:sodipodi="http://sodipodi.sourceforge.net/DTD/sodipodi-0.dtd"
   xmlns:inkscape="http://www.inkscape.org/namespaces/inkscape"
   id="svg2"
   version="1.1"
   inkscape:version="0.91 r13725"
   xml:space="preserve"
   width="60.723751"
   height="59.718582"
   viewBox="0 0 60.723751 59.718582"
   sodipodi:docname="GitHub-Mark.svg"><metadata
     id="metadata8"><rdf:RDF><cc:Work
         rdf:about=""><dc:format>image/svg+xml</dc:format><dc:type
           rdf:resource="http://purl.org/dc/dcmitype/StillImage" /><dc:title></dc:title></cc:Work></rdf:RDF></metadata><defs
     id="defs6" /><sodipodi:namedview
     pagecolor="#ffffff"
     bordercolor="#666666"
     borderopacity="1"
     objecttolerance="10"
     gridtolerance="10"
     guidetolerance="10"
     inkscape:pageopacity="0"
     inkscape:pageshadow="2"
     inkscape:window-width="1298"
     inkscape:window-height="656"
     id="namedview4"
     showgrid="false"
     fit-margin-top="10"
     fit-margin-left="10"
     fit-margin-right="10"
     fit-margin-bottom="10"
     inkscape:zoom="1.5104302"
     inkscape:cx="161.73027"
     inkscape:cy="-11.47457"
     inkscape:window-x="0"
     inkscape:window-y="24"
     inkscape:window-maximized="0"
     inkscape:current-layer="g10" /><g
     id="g10"
     inkscape:groupmode="layer"
     inkscape:label="ink_ext_XXXXXX"
     transform="matrix(1.25,0,0,-1.25,-160.4,565.68125)"><path
       inkscape:connector-curvature="0"
       id="path16"
       style="fill:#1b1817;fill-opacity:1;fill-rule:evenodd;stroke:none"
       d="m 152.6073,451.96011 c -13.19174,0 -23.89006,-10.69685 -23.89006,-23.893 0,-10.55457 6.84522,-19.51041 16.33934,-22.67121 1.1954,-0.21854 1.631,0.51922 1.631,1.15285 0,0.56762 -0.0206,2.06955 -0.0322,4.06284 -6.64574,-1.44326 -8.04793,3.20333 -8.04793,3.20333 -1.08685,2.76038 -2.65331,3.49521 -2.65331,3.49521 -2.16929,1.4814 0.16427,1.45206 0.16427,1.45206 2.3981,-0.16867 3.65949,-2.46264 3.65949,-2.46264 2.13115,-3.65068 5.59263,-2.5961 6.95376,-1.98448 0.21707,1.543 0.83456,2.59611 1.51659,3.19307 -5.30515,0.60429 -10.88312,2.65331 -10.88312,11.80862 0,2.60931 0.93137,4.74047 2.4597,6.41107 -0.24641,0.60429 -1.06631,3.03319 0.23468,6.32306 0,0 2.00502,0.64243 6.56947,-2.44796 1.90528,0.52948 3.9499,0.7935 5.98132,0.80376 2.02995,-0.0107 4.0731,-0.27428 5.98132,-0.80376 4.56152,3.09039 6.5636,2.44796 6.5636,2.44796 1.30392,-3.28987 0.48402,-5.71877 0.23908,-6.32306 1.53126,-1.6706 2.4553,-3.80176 2.4553,-6.41107 0,-9.17878 -5.58676,-11.19846 -10.90805,-11.78955 0.85657,-0.73777 1.62073,-2.1957 1.62073,-4.42512 0,-3.19307 -0.0294,-5.77011 -0.0294,-6.55334 0,-0.6395 0.43122,-1.38312 1.64274,-1.14992 9.4868,3.16667 16.32614,12.11518 16.32614,22.66828 0,13.19615 -10.6983,23.893 -23.89446,23.893" /></g></svg>