<?xml version="1.0" encoding="UTF-8" standalone="no"?>
<!-- Created with Inkscape (http://www.inkscape.org/) -->

<svg
   xmlns:dc="http://purl.org/dc/elements/1.1/"
   xmlns:cc="http://creativecommons.org/ns#"
   xmlns:rdf="http://www.w3.org/1999/02/22-rdf-syntax-ns#"
   xmlns:svg="http://www.w3.org/2000/svg"
   xmlns="http://www.w3.org/2000/svg"
   xmlns:sodipodi="http://sodipodi.sourceforge.net/DTD/sodipodi-0.dtd"
   xmlns:inkscape="http://www.inkscape.org/namespaces/inkscape"
   width="134.05469"
   height="211.78421"
   viewBox="0 0 134.05469 211.78421"
   id="svg2"
   version="1.1"
   inkscape:version="0.91 r13725"
   sodipodi:docname="good.svg">
  <defs
     id="defs4" />
  <sodipodi:namedview
     id="base"
     pagecolor="#ffffff"
     bordercolor="#666666"
     borderopacity="1.0"
     inkscape:pageopacity="0.0"
     inkscape:pageshadow="2"
     inkscape:zoom="1.979899"
     inkscape:cx="-14.187846"
     inkscape:cy="160.27594"
     inkscape:document-units="pt"
     inkscape:current-layer="layer1"
     showgrid="false"
     inkscape:window-width="1920"
     inkscape:window-height="1056"
     inkscape:window-x="0"
     inkscape:window-y="24"
     inkscape:window-maximized="1"
     units="px"
     fit-margin-top="5"
     fit-margin-left="10"
     fit-margin-bottom="5"
     fit-margin-right="10" />
  <metadata
     id="metadata7">
    <rdf:RDF>
      <cc:Work
         rdf:about="">
        <dc:format>image/svg+xml</dc:format>
        <dc:type
           rdf:resource="http://purl.org/dc/dcmitype/StillImage" />
        <dc:title></dc:title>
      </cc:Work>
    </rdf:RDF>
  </metadata>
  <g
     inkscape:label="Layer 1"
     inkscape:groupmode="layer"
     id="layer1"
     transform="translate(-318.42336,-360.0278)">
    <g
       id="g4139">
      <path
         sodipodi:nodetypes="cccc"
         inkscape:connector-curvature="0"
         id="path4136"
         d="m 360.877,563.7727 c -8.06172,-18.85618 -13.74072,-31.90398 -4.29315,-50.76016 27.78576,10.03633 45.65808,2.32317 62.75201,-1.34936 10.467,18.9503 7.01369,33.78791 0.004,50.48381"
         style="fill:none;fill-rule:evenodd;stroke:#bc5700;stroke-width:6;stroke-linecap:round;stroke-linejoin:round;stroke-miterlimit:4;stroke-dasharray:none;stroke-opacity:1" />
      <path
         sodipodi:nodetypes="ccssccsasaac"
         inkscape:connector-curvature="0"
         id="path4138"
         d="m 384.23459,424.61303 c -14.84382,-3.22027 -27.79054,-0.41878 -39.66489,0.33819 -10.09425,5.65224 -6.26751,13.60308 -8.36221,16.05512 -3.72068,4.35539 -2.43968,16.69475 -2.43968,16.69475 -2.84123,5.36518 -3.08576,10.20532 -1.13048,16.84115 -2.06257,12.08226 4.45293,17.61392 8.79423,21.73099 18.68972,12.96044 59.50979,15.48366 84.53714,-0.44195 15.88582,-10.1086 13.14188,-36.03707 13.44766,-54.8639 0.35766,-22.02123 -0.58301,-46.91128 -13.63706,-64.64977 -5.31628,-7.22402 -11.61121,-9.44156 -17.93021,-7.82868 -8.25535,2.10712 -13.27392,12.0232 -15.65737,20.20305 -6.40165,21.97002 -6.68253,45.81454 6.32397,68.35915"
         style="fill:none;fill-rule:evenodd;stroke:#bc5700;stroke-width:6;stroke-linecap:round;stroke-linejoin:round;stroke-miterlimit:4;stroke-dasharray:none;stroke-opacity:1" />
      <path
         sodipodi:nodetypes="cc"
         inkscape:connector-curvature="0"
         id="path4206"
         d="m 337.85715,441.29077 c 0,0 14.28571,9.28572 33.57143,5"
         style="fill:none;fill-rule:evenodd;stroke:#bc5700;stroke-width:6;stroke-linecap:round;stroke-linejoin:round;stroke-miterlimit:4;stroke-dasharray:none;stroke-opacity:1" />
      <path
         sodipodi:nodetypes="cc"
         inkscape:connector-curvature="0"
         id="path4206-3"
         d="m 335.81568,458.40745 c 0,0 11.42857,12.14286 36.07143,7.5"
         style="fill:none;fill-rule:evenodd;stroke:#bc5700;stroke-width:6;stroke-linecap:round;stroke-linejoin:round;stroke-miterlimit:4;stroke-dasharray:none;stroke-opacity:1" />
      <path
         sodipodi:nodetypes="cc"
         inkscape:connector-curvature="0"
         id="path4206-6"
         d="m 334.80553,475.6803 c 0,0 17.10171,13.58412 37.64178,7.19145"
         style="fill:none;fill-rule:evenodd;stroke:#bc5700;stroke-width:6;stroke-linecap:round;stroke-linejoin:round;stroke-miterlimit:4;stroke-dasharray:none;stroke-opacity:1" />
      <path
         transform="matrix(0.96692047,-0.33837832,0,1.4288873,10.223091,-29.59404)"
         d="m 408.10162,392.48004 c -0.12661,0.49381 -0.72812,0.073 -0.82075,-0.21045 -0.25102,-0.76799 0.55385,-1.39168 1.24165,-1.43105 1.23031,-0.0704 2.08929,1.1292 2.04135,2.27285 -0.0704,1.67834 -1.70984,2.80061 -3.30404,2.65165 -2.12481,-0.19855 -3.51736,-2.29203 -3.26195,-4.33524 0.3214,-2.57116 2.87488,-4.23683 5.36643,-3.87225 3.0176,0.44155 4.95786,3.45808 4.48256,6.39763 -0.56013,3.46415 -4.0415,5.67986 -7.42883,5.09285 -3.9108,-0.67772 -6.40253,-4.62506 -5.70316,-8.46002 0.79467,-4.35752 5.20874,-7.12564 9.49122,-6.31346 4.8043,0.91114 7.84909,5.79248 6.92376,10.52242 -1.02728,5.25113 -6.37628,8.57278 -11.55361,7.53406"
         sodipodi:t0="0"
         sodipodi:argument="-17.027758"
         sodipodi:radius="10.167601"
         sodipodi:revolution="3"
         sodipodi:expansion="1"
         sodipodi:cy="392.48004"
         sodipodi:cx="408.10162"
         id="path4229"
         style="fill:none;fill-rule:evenodd;stroke:#bc5700;stroke-width:1.84168684;stroke-linecap:round;stroke-linejoin:miter;stroke-miterlimit:4;stroke-dasharray:none;stroke-dashoffset:0;stroke-opacity:1"
         sodipodi:type="spiral" />
    </g>
  </g>
</svg>
