<?xml version="1.0" encoding="UTF-8" standalone="no"?>
<!-- Created with Inkscape (http://www.inkscape.org/) -->
<svg id="svg2" xmlns:rdf="http://www.w3.org/1999/02/22-rdf-syntax-ns#" xmlns="http://www.w3.org/2000/svg" xmlns:osb="http://www.openswatchbook.org/uri/2009/osb" height="50" width="50" version="1.1" xmlns:cc="http://creativecommons.org/ns#" viewBox="0 0 50.000001 50.000001" xmlns:dc="http://purl.org/dc/elements/1.1/">
 <metadata id="metadata7">
  <rdf:RDF>
   <cc:Work rdf:about="">
    <dc:format>image/svg+xml</dc:format>
    <dc:type rdf:resource="http://purl.org/dc/dcmitype/StillImage"/>
    <dc:title/>
   </cc:Work>
  </rdf:RDF>
 </metadata>
 <g id="layer1" transform="translate(0 -1002.4)">
  <ellipse id="path4136" fill-rule="evenodd" rx="24.375" ry="24.554" cy="1027.5" cx="25.089" fill="#2075c7"/>
  <g id="flowRoot4138" fill="#fcf4dc" transform="translate(13.192 999.12)">
   <path id="path4147" fill="#fcf4dc" d="m15.115 41.025c0-1.395-1.215-2.565-2.655-2.565-1.485 0-2.7 1.17-2.7 2.565 0 1.44 1.215 2.565 2.7 2.565 1.44 0 2.655-1.125 2.655-2.565zm-11.565-23.22 2.295 2.115c1.44-2.385 3.825-3.87 6.075-3.87 2.7 0 4.77 2.07 4.77 4.725 0 2.97-2.34 4.815-3.69 6.3-2.025 2.16-2.115 3.78-2.115 5.76v1.89h2.925v-1.89c0-1.575 0.135-2.925 1.98-4.545 1.485-1.305 4.455-3.06 4.455-7.29 0-4.185-2.925-7.92-8.01-7.92-3.375 0-6.705 1.71-8.685 4.725z"/>
  </g>
 </g>
</svg>
