<?xml version="1.0" encoding="UTF-8" standalone="no"?>
<!-- Created with Inkscape (http://www.inkscape.org/) -->
<svg id="svg5238" xmlns:rdf="http://www.w3.org/1999/02/22-rdf-syntax-ns#" xmlns="http://www.w3.org/2000/svg" height="50" viewBox="0 0 50 50" width="50" version="1.1" xmlns:cc="http://creativecommons.org/ns#" xmlns:dc="http://purl.org/dc/elements/1.1/">
 <metadata id="metadata5244">
  <rdf:RDF>
   <cc:Work rdf:about="">
    <dc:format>image/svg+xml</dc:format>
    <dc:type rdf:resource="http://purl.org/dc/dcmitype/StillImage"/>
    <dc:title/>
   </cc:Work>
  </rdf:RDF>
 </metadata>
 <rect id="rect5795" opacity="0.99" stroke-linejoin="round" height="45" width="45" stroke="#d28615" stroke-linecap="round" y="2.5424" x="2.5424" stroke-width="4.5" fill="none"/>
 <g id="flowRoot5797" transform="translate(2.9661 3.6017)" stroke="#d28615" fill="#d18616">
  <path id="path5862" d="m8.5665 17.159v-1.26h4.445v1.26h-4.445zm4.445-3.255v1.2425h-4.445v-1.2425h4.445zm5.88 0v1.2425h-4.6025v-1.2425h4.6025zm-4.6025 3.255v-1.26h4.6025v1.26h-4.6025zm-5.04-5.775v-1.085h3.7625v1.085h-3.7625zm5.984-4.9525c-0.245 0.4025-0.5425 0.805-0.8575 1.1375h-5.005c0.455-0.3675 0.875-0.735 1.225-1.1375h4.6375zm-2.2225 3.0625h-3.7625v-1.0675h3.7625v1.0675zm5.0925 0h-3.815v-1.0675h3.815v1.0675zm0 1.89h-3.815v-1.085h3.815v1.085zm-2.5025 7.9625c-1.12 0-1.3125-0.1925-1.3125-0.9975v-0.3325h5.88v-4.97h-5.88v-0.8225h5.0925v-4.655h-3.5175c0.4025-0.4725 0.7875-0.9975 1.05-1.505l-0.84-0.5425-0.21 0.0525h-4.4975c0.2275-0.2625 0.42-0.525 0.595-0.7875l-1.3825-0.2625c-0.84 1.3125-2.4675 2.7825-4.725 3.85 0.28 0.1925 0.7175 0.595 0.8925 0.8925 0.455-0.2275 0.875-0.4725 1.2775-0.7175v3.675h4.9875v0.8225h-5.705v5.8625h1.26v-0.8925h4.445v0.315c0 1.575 0.56 2.0125 2.52 2.0125h4.13c1.68 0 2.065-0.56 2.2225-2.45-0.35-0.07-0.8225-0.2625-1.1375-0.455-0.105 1.575-0.28 1.9075-1.155 1.9075h-3.99z"/>
  <path id="path5864" d="m38.894 13.449v-1.3125h-7.0525c0.07-0.7175 0.105-1.435 0.105-2.1525v-1.4525h5.95v-1.3125h-5.95v-2.6425h-1.365v2.6425h-5.6v1.3125h5.6v1.4525c0 0.7-0.035 1.435-0.1225 2.1525h-6.6675v1.3125h6.37c-0.665 2.3275-2.4325 4.5325-6.825 5.985 0.28 0.2625 0.665 0.8225 0.8225 1.155 4.2875-1.47 6.2475-3.6225 7.1225-6.0025 1.4 3.0275 3.7275 5.005 7.2975 5.9325 0.1925-0.385 0.5775-0.9275 0.8575-1.225-3.675-0.77-6.0725-2.8-7.28-5.845h6.7375z"/>
  <path id="path5866" d="m11.786 23.879v1.47h-3.7625v-1.47h3.7625zm-3.7625 4.025v-1.5925h3.7625v1.5925h-3.7625zm5.005 1.05v-6.125h-6.2825v15.242h1.2775v-9.1175h5.005zm2.7825 2.66v2.8875h-4.1125v-2.8875h4.1125zm1.2075 3.99v-5.0925h-6.51v6.1425h1.19v-1.05h5.32zm-1.19-7.6825v-1.61h3.885v1.61h-3.885zm3.885-4.06v1.4875h-3.885v-1.4875h3.885zm1.3125-1.0325h-6.44v6.125h5.1275v7.35c0 0.3325-0.105 0.4375-0.42 0.4375-0.35 0.0175-1.4875 0.035-2.625-0.0175 0.175 0.35 0.385 0.9625 0.455 1.33 1.5225 0 2.52-0.0175 3.1325-0.2275 0.56-0.2275 0.77-0.665 0.77-1.5225v-13.475z"/>
  <path id="path5868" d="m37.179 27.537h-4.165v-1.3125h4.165v1.3125zm0 2.205h-4.165v-1.295h4.165v1.295zm0 2.24h-4.165v-1.3125h4.165v1.3125zm-5.3375-6.72v7.6825h6.545v-7.6825h-3.2375c0.1575-0.4025 0.3325-0.875 0.49-1.33h3.4475v-0.9975h-7.91v0.9975h3.255c-0.105 0.4375-0.245 0.91-0.385 1.33h-2.205zm3.8675 8.47c0.9625 0.6475 2.1 1.645 2.6775 2.345l0.945-0.6125c-0.5775-0.665-1.715-1.6275-2.73-2.24l-0.8925 0.5075zm-2.415-0.49c-0.665 0.805-1.785 1.5925-2.8875 2.1 0.2625 0.175 0.6825 0.6125 0.875 0.8225 1.1025-0.63 2.345-1.61 3.0975-2.5725l-1.085-0.35zm-4.235-8.1725h-3.4125v-1.295h3.4125v1.295zm0 2.24h-3.4125v-1.33h3.4125v1.33zm1.19-4.4975h-5.775v5.46h5.775v-5.46zm-2.2225 10.622h2.9575v-0.9975h-2.9575v-1.8725h3.255v-1.015h-7.84v1.015h3.465v4.655c-0.525-0.42-0.9625-0.98-1.295-1.6975 0.07-0.6475 0.105-1.33 0.14-1.995h-1.085c-0.0875 2.135-0.385 4.48-1.435 5.74 0.28 0.1925 0.665 0.595 0.8225 0.84 0.665-0.805 1.085-1.925 1.33-3.185 1.575 2.345 4.1825 2.765 7.9625 2.765h5.6175c0.07-0.35 0.28-0.84 0.4725-1.12-1.015 0.035-5.32 0.035-6.09 0.035-2.1525-0.0175-3.9375-0.1225-5.32-0.7175v-2.45z"/>
 </g>
</svg>
