<?xml version="1.0" standalone="no"?><!DOCTYPE svg PUBLIC "-//W3C//DTD SVG 1.1//EN" "http://www.w3.org/Graphics/SVG/1.1/DTD/svg11.dtd"><svg t="1515401355235" class="icon" style="" viewBox="0 0 1024 1024" version="1.1" xmlns="http://www.w3.org/2000/svg" p-id="11513" xmlns:xlink="http://www.w3.org/1999/xlink" width="200" height="200"><defs><style type="text/css"></style></defs><path d="M507.008 56.896c-247.018667 0-448 200.96-448 448 0 247.04 200.96 448 448 448 247.04 0 448-200.96 448-448C955.029333 257.856 754.048 56.896 507.008 56.896zM507.008 97.621333c224.554667 0 407.274667 182.698667 407.274667 407.274667 0 99.776-36.202667 191.146667-95.978667 262.058667-51.776-82.858667-170.922667-141.162667-309.866667-141.162667-140.010667 0-259.882667 59.2-310.976 143.104-60.778667-71.168-97.728-163.285333-97.728-263.978667C99.754667 280.32 282.453333 97.621333 507.008 97.621333zM227.712 800.512c38.208-76.501333 149.482667-132.074667 280.725333-132.074667 130.282667 0 240.618667 54.826667 279.637333 130.474667-73.173333 69.973333-172.074667 113.258667-281.066667 113.258667C398.890667 912.170667 300.714667 869.504 227.712 800.512z" p-id="11514" fill="#839496"></path><path d="M507.029333 561.770667c82.346667 0 149.333333-66.986667 149.333333-149.333333 0-82.346667-66.986667-149.333333-149.333333-149.333333s-149.333333 66.986667-149.333333 149.333333C357.696 494.784 424.682667 561.770667 507.029333 561.770667zM507.029333 300.437333c61.76 0 112 50.24 112 112 0 61.76-50.24 112-112 112s-112-50.24-112-112C395.029333 350.677333 445.269333 300.437333 507.029333 300.437333z" p-id="11515" fill="#839496"></path></svg>