<?xml version="1.0" encoding="UTF-8" standalone="no"?>
<!-- Created with Inkscape (http://www.inkscape.org/) -->
<svg id="svg5238" xmlns:rdf="http://www.w3.org/1999/02/22-rdf-syntax-ns#" xmlns="http://www.w3.org/2000/svg" height="50" viewBox="0 0 50 50" width="50" version="1.1" xmlns:cc="http://creativecommons.org/ns#" xmlns:dc="http://purl.org/dc/elements/1.1/">
 <metadata id="metadata5244">
  <rdf:RDF>
   <cc:Work rdf:about="">
    <dc:format>image/svg+xml</dc:format>
    <dc:type rdf:resource="http://purl.org/dc/dcmitype/StillImage"/>
    <dc:title/>
   </cc:Work>
  </rdf:RDF>
 </metadata>
 <rect id="rect5795" opacity=".99" stroke-linejoin="round" height="45" width="45" stroke="#9c0078" stroke-linecap="round" y="2.5424" x="2.5424" stroke-width="4.5" fill="none"/>
 <g id="flowRoot4140" stroke-opacity=".99216" fill-opacity=".99216" transform="translate(.96912 2.4945)" stroke="#9c0078" stroke-width="0.8" fill="#9c0078">
  <path id="path4151" d="m16.522 13.334c-0.1575 0.4025-0.385 0.91-0.5775 1.33h-2.2225c-0.0875-0.3675-0.315-0.91-0.5775-1.33h3.3775zm-7.56-2.7825v-1.2425h3.9025v1.2425h-3.9025zm3.9025-3.43v1.3125h-3.9025v-1.3125h3.9025zm-2.73 8.4525h9.4675v-0.91h-2.59c0.1925-0.35 0.42-0.735 0.63-1.155l-0.6475-0.175h2.17v-0.875h-3.5c-0.1575-0.455-0.4375-1.015-0.735-1.4525l-0.84 0.2975v-5.1275h-6.37v15.26h1.2425v-9.9225h5.1275c0.175 0.2975 0.3325 0.63 0.455 0.945h-3.92v0.875h2.345l-0.805 0.1925c0.1925 0.35 0.3675 0.77 0.455 1.1375h-2.485v0.91zm6.9825 1.575v0.98h-4.34v-0.98h4.34zm-4.34 2.8175v-1.0675h4.34v1.0675h-4.34zm5.46-3.605h-6.5975v4.8825h1.1375v-0.49h5.46v-4.3925zm-1.3475-5.81v-1.2425h4.025v1.2425h-4.025zm4.025-3.43v1.3125h-4.025v-1.3125h4.025zm1.26-0.945h-6.5275v5.3375h5.2675v8.26c0 0.2275-0.07 0.315-0.2975 0.315-0.2275 0.0175-0.9625 0.0175-1.7325-0.0175 0.175 0.3325 0.3325 0.945 0.4025 1.295 1.085 0 1.82-0.035 2.275-0.2625 0.4725-0.21 0.6125-0.6125 0.6125-1.33v-13.598z"/>
  <path id="path4153" d="m28.492 16.712c0-1.12 0.8925-1.9075 1.995-2.6425 1.015 1.26 2.345 2.485 3.6225 3.6225-0.8225 0.8225-1.7675 1.3125-2.7825 1.3125-1.6625 0-2.835-0.84-2.835-2.2925zm1.505-6.685c0-1.155 0.6825-1.89 1.75-1.89 0.91 0 1.4525 0.7 1.4525 1.5225 0 1.19-1.0325 1.9775-2.2575 2.7475-0.5775-0.84-0.945-1.645-0.945-2.38zm8.2425 8.9775c-0.4725-0.2975-1.295-0.8225-2.1875-1.54 0.91-1.2775 1.5225-2.6775 1.8725-4.305h-1.47c-0.2275 1.365-0.7 2.4675-1.4175 3.4475-1.155-1.015-2.415-2.1525-3.395-3.29 1.4525-0.945 2.835-1.9775 2.835-3.71 0-1.5575-1.085-2.6075-2.765-2.6075-1.7675 0-3.045 1.2075-3.045 3.0975 0 0.9975 0.42 2.0125 1.1025 3.01-1.4175 0.8925-2.7475 1.925-2.7475 3.675 0 2.1175 1.6275 3.5 4.1825 3.5 1.68 0 2.905-0.6475 3.92-1.68 0.9625 0.805 1.6975 1.295 2.3625 1.6975l0.7525-1.295z"/>
  <path id="path4155" d="m11.64 28.997h6.5975v1.715h-6.5975v-1.715zm9.5025 4.13h-5.3725v-1.435h3.7625v-3.675h-9.135v3.675h4.06v1.435h-5.6175v5.005h1.295v-3.815h4.3225v4.6025h1.3125v-4.6025h4.06v2.45c0 0.21-0.0875 0.2625-0.35 0.28s-1.19 0.0175-2.24-0.0175c0.175 0.35 0.385 0.8225 0.455 1.19 1.3475 0 2.2225 0 2.765-0.21 0.5425-0.1925 0.6825-0.5425 0.6825-1.225v-3.6575zm-1.6975-10.062c-0.3325 0.63-0.9625 1.5575-1.4525 2.135l1.05 0.4375c0.5075-0.525 1.1725-1.33 1.75-2.1l-1.3475-0.4725zm2.765 2.5725h-6.545v-2.7125h-1.3125v2.7125h-3.6575l1.085-0.49c-0.2975-0.5775-0.91-1.435-1.4875-2.0475l-1.155 0.4725c0.5075 0.63 1.1025 1.4875 1.365 2.065h-2.8v3.745h1.2425v-2.6075h11.987v2.6075h1.2775v-3.745z"/>
  <path id="path4157" d="m37.102 25.409c-0.3675-0.63-1.085-1.715-1.645-2.5025l-1.015 0.4725c0.5425 0.8225 1.2425 1.96 1.5575 2.625l1.1025-0.595zm-11.918 12.478c0.315-1.0675 0.5775-2.7825 0.7-3.9375l-0.77-0.2625c-0.1225 1.1375-0.42 2.8525-0.735 3.8675l0.805 0.3325zm1.19-3.955c0.1925 1.0325 0.28 2.345 0.2625 3.22l0.7175-0.105c0.0175-0.8575-0.105-2.17-0.2975-3.185l-0.6825 0.07zm-0.0525-3.885h1.82v1.645h-1.82v-1.645zm1.82-5.32v1.575h-1.82v-1.575h1.82zm0 4.2875h-1.82v-1.6625h1.82v1.6625zm1.085 2.6775v-1.645h1.925v-1.0325h-1.925v-1.6625h1.925v-1.05h-1.925v-1.575h2.31v-1.0675h-6.3v9.1h5.3025c-0.0525 1.0675-0.105 1.925-0.175 2.59-0.175-0.595-0.5775-1.435-0.9625-2.065l-0.6125 0.21c0.4025 0.7175 0.805 1.6625 0.98 2.2925l0.5775-0.2275c-0.14 1.26-0.2625 1.855-0.455 2.065-0.14 0.175-0.28 0.21-0.49 0.21-0.245 0-0.84 0-1.4875-0.07 0.1575 0.2975 0.28 0.735 0.2975 1.05 0.6475 0.035 1.295 0.035 1.645 0 0.42-0.0175 0.7175-0.14 0.98-0.4725 0.4375-0.49 0.63-1.96 0.84-6.1075 0.035-0.175 0.035-0.5425 0.035-0.5425h-2.485zm-0.2625 4.7425c-0.07-0.735-0.35-1.89-0.7-2.7825l-0.6475 0.14c0.315 0.8925 0.595 2.0475 0.665 2.8175l0.6825-0.175zm7.7175 0.7525v-4.6025h3.045v-1.1725h-3.045v-4.0075h3.465v-1.1725h-8.05v1.1725h3.29v4.0075h-2.8175v1.1725h2.8175v4.6025h-3.6225v1.1725h8.68v-1.1725h-3.7625z"/>
 </g>
</svg>
