<?xml version="1.0" standalone="no"?><!DOCTYPE svg PUBLIC "-//W3C//DTD SVG 1.1//EN" "http://www.w3.org/Graphics/SVG/1.1/DTD/svg11.dtd"><svg t="1515400855306" class="icon" style="" viewBox="0 0 1025 1024" version="1.1" xmlns="http://www.w3.org/2000/svg" p-id="997" xmlns:xlink="http://www.w3.org/1999/xlink" width="200.1953125" height="200"><defs><style type="text/css"></style></defs><path d="M512.881239 1024C230.884682 1024 0 793.115318 0 511.118761S230.884682 0 512.881239 0s512.881239 230.884682 512.881239 512.881239-230.884682 511.118761-512.881239 511.118761z m0-971.125645C259.084337 52.874355 52.874355 259.084337 52.874355 511.118761c0 253.796902 206.209983 460.006885 460.006884 460.006884 253.796902 0 460.006885-206.209983 460.006885-458.244406C972.888124 259.084337 766.678141 52.874355 512.881239 52.874355zM281.996558 340.158348h467.056798c14.099828 0 24.674699-10.574871 24.674699-24.674699s-10.574871-26.437177-24.674699-28.199656H281.996558c-14.099828 1.762478-24.674699 14.099828-24.674699 29.962134 0 12.337349 10.574871 22.91222 24.674699 22.912221z m0 140.998279h262.609294c14.099828-1.762478 24.674699-12.337349 24.674699-26.437178s-10.574871-26.437177-24.674699-26.437177H281.996558c-14.099828 1.762478-24.674699 14.099828-24.674699 26.437177 0 14.099828 10.574871 26.437177 24.674699 26.437178z m467.056798 70.499139H281.996558c-14.099828 1.762478-24.674699 14.099828-24.674699 28.199656s10.574871 26.437177 24.674699 26.437177h467.056798c14.099828-1.762478 24.674699-12.337349 24.674699-26.437177s-10.574871-26.437177-24.674699-28.199656z m-204.447504 140.998279H281.996558c-14.099828 1.762478-24.674699 14.099828-24.674699 28.199656s10.574871 24.674699 24.674699 24.674698h262.609294c14.099828 0 24.674699-10.574871 24.674699-24.674698s-10.574871-26.437177-24.674699-28.199656z" p-id="998" fill="#839496"></path></svg>