<?xml version="1.0" encoding="UTF-8" standalone="no"?>
<!-- Created with Inkscape (http://www.inkscape.org/) -->
<svg id="svg5238" xmlns:rdf="http://www.w3.org/1999/02/22-rdf-syntax-ns#" xmlns="http://www.w3.org/2000/svg" height="50" viewBox="0 0 50 50" width="50" version="1.1" xmlns:cc="http://creativecommons.org/ns#" xmlns:dc="http://purl.org/dc/elements/1.1/">
 <metadata id="metadata5244">
  <rdf:RDF>
   <cc:Work rdf:about="">
    <dc:format>image/svg+xml</dc:format>
    <dc:type rdf:resource="http://purl.org/dc/dcmitype/StillImage"/>
    <dc:title/>
   </cc:Work>
  </rdf:RDF>
 </metadata>
 <rect id="rect5795" opacity="0.99" stroke-linejoin="round" height="45" width="45" stroke="#5eb55b" stroke-linecap="round" y="2.5424" x="2.5424" stroke-width="4.5" fill="none"/>
 <g id="flowRoot5797" transform="translate(2.9661 3.6017)" stroke="#5cb459" fill="#5cb459">
  <path id="path5890" d="m13.886 6.414h-2.905c-0.2275-0.5775-0.595-1.295-0.9275-1.89l-1.1725 0.2975c0.2625 0.4725 0.5425 1.0675 0.77 1.5925h-3.43v1.085h7.665v-1.085zm-6.387 8.663c-0.35 1.085-0.9275 2.1525-1.6275 2.905 0.2625 0.1575 0.6825 0.49 0.8925 0.665 0.6825-0.8225 1.4-2.0825 1.8025-3.29l-1.0675-0.28zm-0.14-7.21c0.3325 0.7875 0.6125 1.8375 0.6825 2.5025l1.1025-0.2975c-0.07-0.665-0.385-1.6975-0.735-2.45l-1.05 0.245zm6.5975 6.5625v-1.12h-3.255v-1.8375h3.465v-1.1025h-2.2225c0.315-0.735 0.665-1.68 0.9625-2.52l-1.19-0.2625c-0.21 0.805-0.6125 1.9775-0.945 2.7825h-4.83v1.1025h3.57v1.8375h-3.4825v1.12h3.4825v4.4275c0 0.175-0.035 0.2275-0.21 0.2275-0.1925 0.0175-0.735 0.0175-1.33 0 0.175 0.3325 0.3325 0.7875 0.385 1.1025 0.84 0 1.435-0.0175 1.8375-0.21s0.5075-0.49 0.5075-1.1025v-4.445h3.255zm-2.555 1.0325c0.5425 0.875 1.155 2.065 1.435 2.8175l0.91-0.525c-0.2625-0.7525-0.8925-1.89-1.4525-2.7475l-0.8925 0.455zm10.395-5.0225h-5.8275v-3.325c1.82-0.28 3.8325-0.7175 5.2675-1.26l-1.0325-0.9625c-1.26 0.525-3.5 1.05-5.4425 1.365v5.9675c0 2.3275-0.1575 5.285-1.61 7.385 0.28 0.1575 0.77 0.5425 0.9975 0.7875 1.5925-2.2575 1.82-5.67 1.82-8.1725v-0.56h2.6425v8.82h1.26v-8.82h1.925v-1.225z"/>
  <path id="path5892" d="m27.431 15.864c0-1.12 0.8925-1.9075 1.995-2.6425 1.015 1.26 2.345 2.485 3.6225 3.6225-0.8225 0.8225-1.7675 1.3125-2.7825 1.3125-1.6625 0-2.835-0.84-2.835-2.2925zm1.505-6.685c0-1.155 0.6825-1.89 1.75-1.89 0.91 0 1.4525 0.7 1.4525 1.5225 0 1.19-1.0325 1.9775-2.2575 2.7475-0.5775-0.84-0.945-1.645-0.945-2.38zm8.2425 8.9775c-0.4725-0.2975-1.295-0.8225-2.1875-1.54 0.91-1.2775 1.5225-2.6775 1.8725-4.305h-1.47c-0.2275 1.365-0.7 2.4675-1.4175 3.4475-1.155-1.015-2.415-2.1525-3.395-3.29 1.4525-0.945 2.835-1.9775 2.835-3.71 0-1.5575-1.085-2.6075-2.765-2.6075-1.7675 0-3.045 1.2075-3.045 3.0975 0 0.9975 0.42 2.0125 1.1025 3.01-1.4175 0.8925-2.7475 1.925-2.7475 3.675 0 2.1175 1.6275 3.5 4.1825 3.5 1.68 0 2.905-0.6475 3.92-1.68 0.9625 0.805 1.6975 1.295 2.3625 1.6975l0.7525-1.295z"/>
  <path id="path5894" d="m19.854 22.374c-1.0675 1.4-3.0625 2.8875-4.725 3.71 0.3325 0.2275 0.7 0.63 0.945 0.91 1.75-0.9625 3.7275-2.5025 4.9875-4.1125l-1.2075-0.5075zm0.5075 4.7775c-1.1725 1.505-3.2725 3.0975-5.04 3.99 0.315 0.245 0.6825 0.6475 0.91 0.9275 1.8725-1.05 3.955-2.7125 5.32-4.41l-1.19-0.5075zm-10.99 1.7325v-4.4975h2.8175v4.4975h-2.8175zm5.985 1.2075v-1.2075h-1.9075v-4.4975h1.645v-1.225h-8.96v1.225h2.0125v4.4975h-2.275v1.2075h2.2575c-0.07 2.59-0.455 5.145-2.345 7.21 0.2975 0.175 0.77 0.595 0.98 0.875 2.0825-2.2925 2.52-5.1625 2.59-8.085h2.835v7.9625h1.26v-7.9625h1.9075zm5.39 1.7675c-1.295 2.1525-3.7625 4.095-6.335 5.1625 0.315 0.2625 0.7 0.7175 0.91 1.0325 2.695-1.2425 5.18-3.3075 6.65-5.7225l-1.225-0.4725z"/>
  <path id="path5896" d="m38.369 24.299c-0.525-0.595-1.6275-1.4875-2.52-2.0825l-0.875 0.7175c0.8925 0.63 1.9775 1.575 2.485 2.1875l0.91-0.8225zm-9.7475 6.16h3.2725v-1.26h-7.665v1.26h3.115v5.075c-1.4 0.28-2.6775 0.5425-3.6575 0.735l0.4025 1.2775c2.2225-0.49 5.425-1.225 8.3825-1.925l-0.105-1.155c-1.26 0.28-2.52 0.525-3.745 0.7875v-4.795zm10.465-3.85v-1.2775h-5.18c-0.0525-1.0325-0.07-2.0825-0.07-3.1675h-1.365c0.0175 1.0675 0.035 2.135 0.0875 3.1675h-8.9425v1.2775h9.03c0.4725 6.4575 1.925 11.48 4.76 11.48 1.33 0 1.82-0.8925 2.0475-3.92-0.3675-0.14-0.8575-0.42-1.155-0.7175-0.105 2.3275-0.315 3.29-0.7875 3.29-1.7325 0-3.0975-4.2525-3.535-10.132h5.11z"/>
 </g>
</svg>
