<?xml version="1.0" standalone="no"?>
<!DOCTYPE svg PUBLIC "-//W3C//DTD SVG 1.1//EN" "http://www.w3.org/Graphics/SVG/1.1/DTD/svg11.dtd">
<svg t="1515461655897" class="icon" style="" viewBox="0 0 1024 1024" version="1.1" xmlns="http://www.w3.org/2000/svg" p-id="993" xmlns:xlink="http://www.w3.org/1999/xlink" width="200" height="200">
<defs>
<style type="text/css">
</style>
</defs>
<path d="M901.9697 410.553124 613.396178 410.553124 613.396178 121.979602c0-64.589365-45.425488-117.011189-101.396178-117.011189s-101.396178 52.421824-101.396178 117.011189l0 288.573522L122.0303 410.553124c-64.589365 0-117.011189 45.425488-117.011189 101.396178s52.421824 101.396178 117.011189 101.396178l288.573522 0 0 288.573522c0 64.589365 45.425488 117.011189 101.396178 117.011189s101.396178-52.421824 101.396178-117.011189L613.396178 613.34548l288.573522 0c64.589365 0 117.011189-45.425488 117.011189-101.396178C1018.980889 455.978612 966.660461 410.553124 901.9697 410.553124z" p-id="994" fill="#ffebcd">
</path>
</svg>

