<?xml version="1.0" standalone="no"?>
<!DOCTYPE svg PUBLIC "-//W3C//DTD SVG 1.1//EN" "http://www.w3.org/Graphics/SVG/1.1/DTD/svg11.dtd">
<svg t="1517361484004" class="icon" style="" viewBox="0 0 1024 1024" version="1.1" xmlns="http://www.w3.org/2000/svg" p-id="2983" xmlns:xlink="http://www.w3.org/1999/xlink" width="200" height="200">
<defs>
<style type="text/css">
</style>
</defs>
<path 
d="M957.875 404.931l-11.859-270.539c-1.52-34.69-29.714-62.242-64.429-62.956l-270.744-5.603a65.843 65.843 0 0 0-48.463 19.814L87.562 571.569c-25.314 25.902-24.828 67.81 1.074 93.124L371.238 940.84c25.905 25.31 67.812 24.828 93.125-1.079l474.82-485.921a65.851 65.851 0 0 0 18.692-48.909zM827.794 279.653c-10.11 42.928-53.107 69.538-96.04 59.427s-69.537-53.112-59.427-96.04c10.111-42.933 53.107-69.538 96.04-59.427s69.537 53.107 59.427 96.04z"
p-id="2984"
fill="#839496">
</path>
</svg>

