<?xml version="1.0" encoding="UTF-8" standalone="no"?>
<svg
   xmlns:dc="http://purl.org/dc/elements/1.1/"
   xmlns:cc="http://creativecommons.org/ns#"
   xmlns:rdf="http://www.w3.org/1999/02/22-rdf-syntax-ns#"
   xmlns:svg="http://www.w3.org/2000/svg"
   xmlns="http://www.w3.org/2000/svg"
   xmlns:sodipodi="http://sodipodi.sourceforge.net/DTD/sodipodi-0.dtd"
   xmlns:inkscape="http://www.inkscape.org/namespaces/inkscape"
   t="1523363661660"
   class="icon"
   style=""
   viewBox="0 0 1024 1024"
   version="1.1"
   p-id="1926"
   width="200"
   height="200"
   id="svg2"
   inkscape:version="0.91 r13725"
   sodipodi:docname="top.svg">
  <metadata
     id="metadata14">
    <rdf:RDF>
      <cc:Work
         rdf:about="">
        <dc:format>image/svg+xml</dc:format>
        <dc:type
           rdf:resource="http://purl.org/dc/dcmitype/StillImage" />
      </cc:Work>
    </rdf:RDF>
  </metadata>
  <sodipodi:namedview
     pagecolor="#ffffff"
     bordercolor="#666666"
     borderopacity="1"
     objecttolerance="10"
     gridtolerance="10"
     guidetolerance="10"
     inkscape:pageopacity="0"
     inkscape:pageshadow="2"
     inkscape:window-width="770"
     inkscape:window-height="480"
     id="namedview12"
     showgrid="false"
     inkscape:zoom="1.18"
     inkscape:cx="-0.84745763"
     inkscape:cy="100"
     inkscape:window-x="0"
     inkscape:window-y="24"
     inkscape:window-maximized="0"
     inkscape:current-layer="svg2" />
  <defs
     id="defs4">
    <style
       type="text/css"
       id="style6" />
  </defs>
  <g
     id="g4142">
    <path
       id="path8"
       fill="#2075c7"
       p-id="1927"
       d="M536.255427 195.182354c-7.804756-7.804756-17.966187-11.615549-28.311813-11.615549-9.43693 0-18.874883 3.449565-26.496467 10.163477-2.360767 1.452071-4.356214 3.267417-6.352685 5.262864L218.47792 455.611735c-15.607466 15.60542-15.607466 40.834011 0 56.43943 15.607466 15.607466 41.558511 15.607466 57.167001 0l193.46013-192.733583 0 600.526219c0 22.1423 17.787108 39.927361 39.927361 39.927361 22.140253 0 39.927361-17.785062 39.927361-39.927361L548.959773 319.317583 737.15704 508.422522c15.607466 15.607466 40.469714 15.607466 56.078203 0 15.607466-15.607466 15.425318-40.834011-0.182149-56.441477L536.255427 195.182354 536.255427 195.182354z" />
    <path
       id="path10"
       fill="#2075c7"
       p-id="1928"
       d="M101.784174 143.097092l816.674071 0c22.140253 0 39.925315-17.785062 39.925315-39.927361 0-22.140253-17.784038-39.925315-39.925315-39.925315L101.784174 63.244416c-22.140253 0-39.927361 17.785062-39.927361 39.925315C61.856813 125.31203 79.643921 143.097092 101.784174 143.097092L101.784174 143.097092z" />
  </g>
</svg>
