<?xml version="1.0" encoding="UTF-8" standalone="no"?>
<!-- Created with Inkscape (http://www.inkscape.org/) -->
<svg id="svg5238" xmlns:rdf="http://www.w3.org/1999/02/22-rdf-syntax-ns#" xmlns="http://www.w3.org/2000/svg" height="50" viewBox="0 0 50 50" width="50" version="1.1" xmlns:cc="http://creativecommons.org/ns#" xmlns:dc="http://purl.org/dc/elements/1.1/">
 <metadata id="metadata5244">
  <rdf:RDF>
   <cc:Work rdf:about="">
    <dc:format>image/svg+xml</dc:format>
    <dc:type rdf:resource="http://purl.org/dc/dcmitype/StillImage"/>
    <dc:title/>
   </cc:Work>
  </rdf:RDF>
 </metadata>
 <rect id="rect5795" opacity="0.99" stroke-linejoin="round" height="45" width="45" stroke="#c43663" stroke-linecap="round" y="2.5424" x="2.5424" stroke-width="4.5" fill="none"/>
 <g id="flowRoot5797" transform="translate(2.9661 3.6017)" stroke="#c43663" fill="#c43260">
  <path id="path5027" d="m9.3365 19.224h9.1525v-1.365h-4.5325c-0.665 0-1.33 0.0525-2.03 0.105 3.29-2.695 5.9325-5.32 5.9325-7.91 0-2.4325-1.6975-3.9025-4.235-3.9025-1.82 0-3.29 0.9275-4.4975 2.31l1.015 0.91c1.015-1.1375 2.065-1.89 3.4125-1.89 1.7325 0 2.7125 1.1025 2.7125 2.6075 0 2.24-2.87 4.97-6.93 8.2075v0.9275z"/>
  <path id="path5029" d="m31.334 19.434c2.8 0 4.7425-2.2925 4.7425-6.685s-1.9425-6.58-4.7425-6.58-4.7425 2.1875-4.7425 6.58 1.9425 6.685 4.7425 6.685zm0-1.295c-1.8375 0-3.1675-1.5925-3.1675-5.39 0-3.815 1.33-5.285 3.1675-5.285s3.1675 1.47 3.1675 5.285c0 3.7975-1.33 5.39-3.1675 5.39z"/>
  <path id="path5031" d="m9.8265 34.274c-0.7525 0-1.7675-0.9625-1.7675-3.15 0-2.3275 2.03-5.18 5.355-5.6-0.1925 1.5925-0.525 3.2375-0.9625 4.6725-0.8925 2.9225-1.855 4.0775-2.625 4.0775zm4.5675 2.905c4.13-0.5425 6.5275-2.975 6.5275-6.615 0-3.5-2.59-6.37-6.65-6.37-4.235 0-7.595 3.29-7.595 7.0525 0 2.8525 1.5575 4.6375 3.0975 4.6375 1.61 0 2.9925-1.8375 4.06-5.39 0.4725-1.6275 0.805-3.3775 1.0325-4.9875 2.94 0.245 4.6025 2.3975 4.6025 5.0225 0 2.9925-2.17 4.6375-4.3925 5.1275-0.42 0.0875-0.945 0.175-1.4875 0.21l0.805 1.3125z"/>
  <path id="path5033" d="m36.811 24.877v1.645h-10.342v-1.645h10.342zm1.2775 2.695v-3.745h-5.46c-0.2275-0.5075-0.595-1.225-0.9275-1.7675l-1.26 0.315c0.2275 0.4375 0.5075 0.98 0.7175 1.4525h-5.985v4.0075c0 2.765-0.1575 6.7025-1.9775 9.5025 0.2975 0.14 0.8575 0.525 1.1025 0.735 1.8725-2.9225 2.17-7.2975 2.17-10.238v-0.2625h11.62zm-7.5425 1.855h-3.57v1.05h3.57v1.505h-3.36v1.0325h3.36v1.5925h-4.0075v1.085h4.0075v2.2225h1.225v-9.8525h-1.225v1.365zm8.365 5.1625h-4.1825v-1.575h3.6225v-1.0325h-3.6225v-1.4875h3.7975v-1.0675h-3.7975v-1.365h-1.2425v9.8525h1.2425v-2.24h4.1825v-1.085z"/>
 </g>
</svg>
