<?xml version="1.0" encoding="UTF-8" standalone="no"?>
<!-- Created with Inkscape (http://www.inkscape.org/) -->
<svg id="svg5238" xmlns:rdf="http://www.w3.org/1999/02/22-rdf-syntax-ns#" xmlns="http://www.w3.org/2000/svg" height="50" viewBox="0 0 50 50" width="50" version="1.1" xmlns:cc="http://creativecommons.org/ns#" xmlns:dc="http://purl.org/dc/elements/1.1/">
 <metadata id="metadata5244">
  <rdf:RDF>
   <cc:Work rdf:about="">
    <dc:format>image/svg+xml</dc:format>
    <dc:type rdf:resource="http://purl.org/dc/dcmitype/StillImage"/>
    <dc:title/>
   </cc:Work>
  </rdf:RDF>
 </metadata>
 <rect id="rect5795" opacity=".99" stroke-linejoin="round" height="45" width="45" stroke="#720b91" stroke-linecap="round" y="2.5424" x="2.5424" stroke-width="4.5" fill="none"/>
 <g id="flowRoot4140" fill-opacity=".99216" transform="matrix(1.1067 0 0 1.0927 1.1402 3.5304)" stroke="#720b91" stroke-width=".81842" fill="#720b91">
  <path id="path4168" d="m15.158 11.854c-0.14322 0.36602-0.3501 0.82752-0.52516 1.2094h-2.0211c-0.07957-0.33419-0.28645-0.82752-0.52516-1.2094h3.0714zm-6.8748-2.5303v-1.1299h3.5488v1.1299h-3.5488zm3.5488-3.1191v1.1935h-3.5488v-1.1935h3.5488zm-2.4826 7.6864h8.6094v-0.82752h-2.3552c0.17505-0.31828 0.38193-0.66838 0.5729-1.0503l-0.58881-0.15914h1.9733v-0.79569h-3.1828c-0.14322-0.41376-0.39784-0.923-0.66838-1.3208l-0.76386 0.27053v-4.6627h-5.7926v13.877h1.1299v-9.0231h4.6627c0.15914 0.27054 0.30236 0.5729 0.41376 0.85935h-3.5647v0.79569h2.1324l-0.73204 0.17505c0.17505 0.31828 0.33419 0.70021 0.41376 1.0344h-2.2598v0.82752zm6.3496 1.4322v0.89117h-3.9466v-0.89117h3.9466zm-3.9466 2.5621v-0.97074h3.9466v0.97074h-3.9466zm4.9651-3.2782h-5.9995v4.44h1.0344v-0.44559h4.9651v-3.9944zm-1.2254-5.2834v-1.1299h3.6602v1.1299h-3.6602zm3.6602-3.1191v1.1935h-3.6602v-1.1935h3.6602zm1.1458-0.85935h-5.9358v4.8537h4.7901v7.5113c0 0.20688-0.06366 0.28645-0.27054 0.28645-0.20688 0.01591-0.87526 0.01591-1.5755-0.01591 0.15914 0.30236 0.30236 0.85934 0.36602 1.1776 0.98666 0 1.655-0.03183 2.0688-0.23871 0.42967-0.19096 0.55698-0.55698 0.55698-1.2094v-12.365z"/>
  <path id="path4170" d="m33.554 6.7138c-0.25462 0.079569-0.66838 0.14322-1.1935 0.14322h-6.1427c-0.47741 0-1.3845-0.079569-1.6073-0.1114v1.4482c0.17505-0.015914 1.0503-0.079569 1.6073-0.079569h6.2064c-0.39784 1.3049-1.5596 3.1987-2.6417 4.424-1.6391 1.8301-3.9944 3.7238-6.5565 4.7264l1.0185 1.0662c2.3552-1.0662 4.5036-2.8167 6.2064-4.6468 1.6232 1.4482 3.3101 3.326 4.3763 4.7264l1.114-0.97074c-1.0344-1.2413-2.9759-3.3101-4.6468-4.7423 1.1299-1.4322 2.1324-3.2942 2.6735-4.6627 0.09548-0.22279 0.30236-0.5729 0.39784-0.70021l-0.812-0.6212z"/>
  <path id="path4172" d="m7.3439 28.563c0.49333-0.04774 1.3368-0.07957 2.212-0.07957h8.7367c0.71612 0 1.3845 0.06366 1.7028 0.07957v-1.5596c-0.3501 0.03183-0.923 0.07957-1.7187 0.07957h-8.7208c-0.89117 0-1.7346-0.04774-2.212-0.07957v1.5596z"/>
  <path id="path4174" d="m34.532 23.519c-0.58881 0-1.0503-0.47741-1.0503-1.0503 0-0.5729 0.4615-1.0662 1.0503-1.0662 0.5729 0 1.0503 0.49333 1.0503 1.0662 0 0.5729-0.47741 1.0503-1.0503 1.0503zm-10.201-0.525c-0.52516 0-1.1617-0.04774-1.5914-0.09548v1.4004c0.39784-0.01591 0.95483-0.04774 1.5755-0.04774h8.1479c-0.22279 1.5277-0.95483 3.7397-2.0847 5.1879-1.3368 1.7028-3.1191 3.0555-6.2064 3.8193l1.0821 1.1935c2.9122-0.90709 4.806-2.3871 6.27-4.249 1.2572-1.6391 2.0211-4.2012 2.3712-5.8722l0.03183-0.17505c0.19097 0.06366 0.39784 0.09548 0.60472 0.09548 0.98666 0 1.7823-0.79569 1.7823-1.7823 0-0.98666-0.79569-1.7983-1.7823-1.7983-0.98666 0-1.7823 0.8116-1.7823 1.7983 0 0.17505 0.03183 0.3501 0.07957 0.50924-0.19097 0.01591-0.36602 0.01591-0.52516 0.01591h-7.9728z"/>
 </g>
</svg>
